<svg width="20" height="16" viewBox="0 0 20 16" fill="none" xmlns="http://www.w3.org/2000/svg">
<path d="M16.3399 14.9561C16.3399 15.2329 16.2299 15.4985 16.0341 15.6942C15.8384 15.89 15.5728 16 15.296 16H2.07289C1.61215 15.9977 1.17093 15.8137 0.845133 15.4879C0.519337 15.1621 0.335294 14.7209 0.333008 14.2601V3.82085C0.333008 3.54398 0.442993 3.27845 0.638767 3.08268C0.834542 2.8869 1.10007 2.77692 1.37694 2.77692C1.6538 2.77692 1.91933 2.8869 2.1151 3.08268C2.31088 3.27845 2.42086 3.54398 2.42086 3.82085V13.9121H15.296C15.5728 13.9121 15.8384 14.0221 16.0341 14.2179C16.2299 14.4137 16.3399 14.6792 16.3399 14.9561ZM18.8888 5.8739L18.9149 5.83041L18.9497 5.79561L18.9758 5.74341L19.0019 5.70861L19.028 5.65642C19.028 5.63902 19.0367 5.63032 19.0454 5.61292C19.0541 5.59552 19.0541 5.57812 19.0628 5.56073C19.0715 5.54333 19.0715 5.53463 19.0802 5.51723C19.0889 5.49983 19.0889 5.48243 19.0889 5.46503C19.0889 5.44763 19.0976 5.43023 19.1063 5.41284C19.105 5.39499 19.108 5.3771 19.115 5.36064V5.31714C19.1237 5.24782 19.1237 5.17768 19.115 5.10836V5.06486C19.108 5.04839 19.105 5.03051 19.1063 5.01266C19.0976 4.99526 19.0976 4.97787 19.0889 4.96047C19.0802 4.94307 19.0802 4.92567 19.0802 4.90827C19.0802 4.89087 19.0715 4.87347 19.0628 4.86477C19.0541 4.85607 19.0541 4.82998 19.0454 4.81258C19.0367 4.79518 19.028 4.78648 19.028 4.76908L19.0019 4.71688L18.9758 4.68209L18.9497 4.62989L18.9149 4.59509L18.8888 4.5516L18.8279 4.482H18.8192L14.6435 0.306289C14.4474 0.110175 14.1814 -2.92233e-09 13.9041 0C13.6267 2.92233e-09 13.3607 0.110175 13.1646 0.306289C12.9685 0.502403 12.8583 0.768391 12.8583 1.04574C12.8583 1.32309 12.9685 1.58907 13.1646 1.78519L15.557 4.16882H13.2081C11.1248 4.16825 9.10032 4.86015 7.45311 6.13571C5.80591 7.41127 4.62938 9.19814 4.10855 11.2153C4.03977 11.483 4.0799 11.7669 4.22014 12.005C4.36038 12.2431 4.58929 12.4159 4.85669 12.4854C4.9415 12.5098 5.02944 12.5216 5.11768 12.5202C5.34921 12.5214 5.57444 12.4449 5.75738 12.3029C5.94031 12.161 6.07038 11.9619 6.12681 11.7373C6.53207 10.1677 7.44772 8.77746 8.72967 7.78529C10.0116 6.79312 11.5871 6.25538 13.2081 6.25668H15.557L13.1646 8.64901C13.0673 8.746 12.9901 8.86124 12.9374 8.98813C12.8847 9.11502 12.8576 9.25106 12.8576 9.38846C12.8576 9.52586 12.8847 9.6619 12.9374 9.78879C12.9901 9.91568 13.0673 10.0309 13.1646 10.1279C13.3616 10.3224 13.6273 10.4314 13.9041 10.4314C14.1809 10.4314 14.4465 10.3224 14.6435 10.1279L18.8192 5.9522H18.8279L18.8888 5.8739Z" fill="#12419F"/>
</svg>
