<svg width="15" height="16" viewBox="0 0 15 16" fill="none" xmlns="http://www.w3.org/2000/svg">
<path d="M13.7938 2.90909H0.993821C0.762359 2.90909 0.540378 3.00104 0.37671 3.16471C0.213042 3.32837 0.121094 3.55036 0.121094 3.78182C0.121094 4.01328 0.213042 4.23526 0.37671 4.39893C0.540378 4.5626 0.762359 4.65455 0.993821 4.65455H1.28473V14.5455C1.28664 14.9306 1.4405 15.2995 1.71287 15.5719C1.98524 15.8442 2.3541 15.9981 2.73928 16H12.0484C12.4335 15.9981 12.8024 15.8442 13.0748 15.5719C13.3471 15.2995 13.501 14.9306 13.5029 14.5455V4.65455H13.7938C14.0253 4.65455 14.2473 4.5626 14.4109 4.39893C14.5746 4.23526 14.6665 4.01328 14.6665 3.78182C14.6665 3.55036 14.5746 3.32837 14.4109 3.16471C14.2473 3.00104 14.0253 2.90909 13.7938 2.90909ZM11.7575 14.2545H3.03018V4.65455H11.7575V14.2545ZM3.612 0.872727C3.612 0.641266 3.70395 0.419284 3.86762 0.255616C4.03129 0.0919478 4.25327 0 4.48473 0H10.3029C10.5344 0 10.7564 0.0919478 10.92 0.255616C11.0837 0.419284 11.1756 0.641266 11.1756 0.872727C11.1756 1.10419 11.0837 1.32617 10.92 1.48984C10.7564 1.65351 10.5344 1.74545 10.3029 1.74545H4.48473C4.25327 1.74545 4.03129 1.65351 3.86762 1.48984C3.70395 1.32617 3.612 1.10419 3.612 0.872727Z" fill="#C63536"/>
<path d="M11.7575 14.2545H3.03018V4.65455H11.7575V14.2545Z" fill="#C63536"/>
</svg>
