<svg width="15" height="17" viewBox="0 0 15 17" fill="none" xmlns="http://www.w3.org/2000/svg">
<path d="M13.9003 3.40909H1.10027C0.868805 3.40909 0.646823 3.50104 0.483155 3.66471C0.319487 3.82837 0.227539 4.05036 0.227539 4.28182C0.227539 4.51328 0.319487 4.73526 0.483155 4.89893C0.646823 5.0626 0.868805 5.15455 1.10027 5.15455H1.39118V15.0455C1.39309 15.4306 1.54695 15.7995 1.81931 16.0719C2.09168 16.3442 2.46054 16.4981 2.84572 16.5H12.1548C12.54 16.4981 12.9089 16.3442 13.1812 16.0719C13.4536 15.7995 13.6074 15.4306 13.6094 15.0455V5.15455H13.9003C14.1317 5.15455 14.3537 5.0626 14.5174 4.89893C14.681 4.73526 14.773 4.51328 14.773 4.28182C14.773 4.05036 14.681 3.82837 14.5174 3.66471C14.3537 3.50104 14.1317 3.40909 13.9003 3.40909ZM11.8639 14.7545H3.13663V5.15455H11.8639V14.7545ZM3.71845 1.37273C3.71845 1.14127 3.8104 0.919284 3.97406 0.755616C4.13773 0.591948 4.35971 0.5 4.59118 0.5H10.4094C10.6408 0.5 10.8628 0.591948 11.0265 0.755616C11.1901 0.919284 11.2821 1.14127 11.2821 1.37273C11.2821 1.60419 11.1901 1.82617 11.0265 1.98984C10.8628 2.15351 10.6408 2.24545 10.4094 2.24545H4.59118C4.35971 2.24545 4.13773 2.15351 3.97406 1.98984C3.8104 1.82617 3.71845 1.60419 3.71845 1.37273Z" fill="white"/>
</svg>
